<?xml version="1.0" encoding="iso-8859-1"?>
<!-- Generator: Adobe Illustrator 19.0.0, SVG Export Plug-In . SVG Version: 6.00 Build 0)  -->
<svg version="1.1" id="Layer_1" xmlns="http://www.w3.org/2000/svg" xmlns:xlink="http://www.w3.org/1999/xlink" x="0px" y="0px"
	 viewBox="0 0 512 512" style="enable-background:new 0 0 512 512;" xml:space="preserve">
<path style="fill:#E2E2E2;" d="M256,512c141.392,0,256-114.608,256-256S397.392,0,256,0S0,114.608,0,256S114.608,512,256,512z"/>
<path style="fill:#FFFFFF;" d="M488,183.504H83.328v198.528H488V183.504z M304.96,352c-16.624,0-31.408-6.368-41.68-18.272
	c-7.808-8.624-12.928-20.528-14.784-35.312H235.76v-10.064h11.712c0-1.024,0-2.064,0-3.072c0-3.28,0.208-6.368,0.416-9.248H235.76
	v-10.256h13.552c2.48-14.384,8.624-26.288,16.832-34.704c10.48-10.88,23.824-17.04,40.656-17.04c12.112,0,21.552,3.488,27.296,6.576
	L330,234.16c-5.136-3.072-13.76-5.744-22.992-5.744c-11.088,0-20.128,3.904-27.104,11.296c-6.16,5.952-10.272,15.184-12.32,26.08
	h57.28v10.256h-59.136c-0.208,2.672-0.416,5.76-0.416,8.624c0,1.232,0,2.256,0,3.696h59.552v10.064h-58.096
	c1.632,11.904,5.744,20.736,11.296,26.88c7.584,8.016,17.856,11.92,28.944,11.92c10.88,0,20.32-4.112,25.04-6.784l3.488,12.928
	C329.2,347.696,318.512,352,304.96,352z"/>
<polygon style="fill:#ED1C24;" points="24,124.208 455.248,124.208 455.248,100.208 0,100.208 0,338.592 24,338.592 "/>
<path d="M59.328,406.016H512V159.504H59.328V406.016z M83.328,183.504H488v198.528H83.328V183.504z"/>
<path style="fill:#ED1C24;" d="M307.024,337.216c-11.088,0-21.36-3.904-28.944-11.92c-5.552-6.16-9.664-14.976-11.296-26.88h58.096
	v-10.064h-59.552c0-1.44,0-2.48,0-3.696c0-2.88,0.208-5.952,0.416-8.624h59.136v-10.256H267.6c2.048-10.88,6.16-20.128,12.32-26.08
	c6.976-7.392,16.016-11.296,27.104-11.296c9.232,0,17.856,2.672,22.992,5.744l4.096-13.552c-5.744-3.072-15.184-6.576-27.296-6.576
	c-16.832,0-30.192,6.16-40.656,17.04c-8.208,8.432-14.368,20.336-16.832,34.704h-13.552v10.256h12.128
	c-0.208,2.88-0.416,5.968-0.416,9.248c0,1.024,0,2.048,0,3.072h-11.712V298.4h12.736c1.856,14.784,6.976,26.688,14.784,35.312
	C273.552,345.632,288.336,352,304.96,352c13.552,0,24.24-4.304,30.592-8.624l-3.488-12.928
	C327.344,333.12,317.904,337.216,307.024,337.216z"/>
<g>
</g>
<g>
</g>
<g>
</g>
<g>
</g>
<g>
</g>
<g>
</g>
<g>
</g>
<g>
</g>
<g>
</g>
<g>
</g>
<g>
</g>
<g>
</g>
<g>
</g>
<g>
</g>
<g>
</g>
</svg>
